HIERARCHY
ROOT Hips
{
 OFFSET 0.000000 0.000000 0.000000
 CHANNELS 6 Xposition Yposition Zposition Yrotation Xrotation Zrotation
 JOINT Chest
 {
  OFFSET 0.000000 9.585900 0.002600
  CHANNELS 3 Yrotation Xrotation Zrotation
  JOINT Chest2
  {
   OFFSET 0.000000 9.601200 -0.005300
   CHANNELS 3 Yrotation Xrotation Zrotation
   JOINT Chest3
   {
    OFFSET 0.000000 9.561800 0.000000
    CHANNELS 3 Yrotation Xrotation Zrotation
    JOINT Chest4
    {
     OFFSET 0.000000 9.552100 0.000000
     CHANNELS 3 Yrotation Xrotation Zrotation
     JOINT Neck
     {
      OFFSET 0.000000 14.453000 0.000000
      CHANNELS 3 Yrotation Xrotation Zrotation
      JOINT Head
      {
       OFFSET 0.000000 8.936500 -0.011300
       CHANNELS 3 Yrotation Xrotation Zrotation
       End Site
       {
        OFFSET 0.000000 17.073600 -0.006000
       }
      }
     }
     JOINT RightCollar
     {
      OFFSET -2.921100 9.558500 0.000000
      CHANNELS 3 Yrotation Xrotation Zrotation
      JOINT RightShoulder
      {
       OFFSET -13.519700 0.000000 0.000000
       CHANNELS 3 Yrotation Xrotation Zrotation
       JOINT RightElbow
       {
        OFFSET 0.000000 -29.696600 0.000000
        CHANNELS 3 Yrotation Xrotation Zrotation
        JOINT RightWrist
        {
         OFFSET 0.000000 -24.004700 0.000000
         CHANNELS 3 Yrotation Xrotation Zrotation
         End Site
         {
          OFFSET 0.000000 -17.728500 0.000000
         }
        }
       }
      }
     }
     JOINT LeftCollar
     {
      OFFSET 2.921100 9.558500 0.000000
      CHANNELS 3 Yrotation Xrotation Zrotation
      JOINT LeftShoulder
      {
       OFFSET 13.519700 0.000000 0.000000
       CHANNELS 3 Yrotation Xrotation Zrotation
       JOINT LeftElbow
       {
        OFFSET 0.000000 -29.696600 0.000000
        CHANNELS 3 Yrotation Xrotation Zrotation
        JOINT LeftWrist
        {
         OFFSET 0.000000 -24.004700 0.000000
         CHANNELS 3 Yrotation Xrotation Zrotation
         End Site
         {
          OFFSET 0.000000 -17.728500 0.000000
         }
        }
       }
      }
     }
    }
   }
  }
 }
 JOINT RightHip
 {
  OFFSET -7.771700 -0.012900 -0.001300
  CHANNELS 3 Yrotation Xrotation Zrotation
  JOINT RightKnee
  {
   OFFSET 0.000000 -40.869800 0.001200
   CHANNELS 3 Yrotation Xrotation Zrotation
   JOINT RightAnkle
   {
    OFFSET 0.000000 -39.717900 0.002100
    CHANNELS 3 Yrotation Xrotation Zrotation
    JOINT RightToe
    {
     OFFSET 0.000000 -4.965400 11.033500
     CHANNELS 3 Yrotation Xrotation Zrotation
     End Site
     {
      OFFSET 0.000000 -1.423100 5.872300
     }
    }
   }
  }
 }
 JOINT LeftHip
 {
  OFFSET 7.771700 -0.012900 -0.001300
  CHANNELS 3 Yrotation Xrotation Zrotation
  JOINT LeftKnee
  {
   OFFSET 0.000000 -40.869800 0.001200
   CHANNELS 3 Yrotation Xrotation Zrotation
   JOINT LeftAnkle
   {
    OFFSET 0.000000 -39.717900 0.002100
    CHANNELS 3 Yrotation Xrotation Zrotation
    JOINT LeftToe
    {
     OFFSET 0.000000 -4.965400 11.033500
     CHANNELS 3 Yrotation Xrotation Zrotation
     End Site
     {
      OFFSET 0.000000 -1.423100 5.872300
     }
    }
   }
  }
 }
}
MOTION
Frames: 11
Frame Time: 0.008333
-215.582363 57.552392 134.356261 177.151645 -29.727942 -1.165776 1.464179 24.108543 3.300608 -0.062466 3.638408 0.448513 -0.088571 5.790338 0.730444 0.010516 19.959583 2.528215 0.046520 12.195070 -1.409812 0.678275 -13.134010 -2.707876 4.953160 -1.072551 -3.075904 18.901456 -28.409827 -19.114990 38.347832 -62.223972 -5.393784 16.199614 7.434114 -32.135449 -10.120259 -4.709494 -3.916006 -7.862514 -24.855516 2.777568 -68.963688 -50.714629 30.854068 -21.621179 -1.816321 23.695007 2.824977 -46.242676 -1.292000 -13.557307 67.254891 -19.707824 5.641994 24.370644 3.476412 -1.273746 -16.569622 6.894315 -9.116315 -43.530451 0.950113 33.302724 68.674361 37.876284 -13.397184 2.880281 -8.059201 0.203984 0.893387 0.083836
-215.591032 57.545624 134.362221 177.165495 -29.739052 -1.169485 1.447877 24.107913 3.298191 -0.063717 3.619269 0.451524 -0.078575 5.781637 0.731493 0.018459 19.944490 2.538421 0.009751 12.157832 -1.416554 0.611777 -13.204007 -2.706163 4.935921 -1.068128 -3.080622 18.934082 -28.440934 -19.118505 38.262556 -62.142920 -5.268999 16.237260 7.591705 -32.079925 -10.126141 -4.726176 -3.909687 -7.882047 -24.865373 2.763934 -68.798006 -50.664652 30.646057 -21.603771 -1.820216 23.711419 2.783562 -46.255045 -1.275425 -13.565984 67.251313 -19.748639 5.661463 24.432794 3.465418 -1.271352 -16.610294 6.918616 -9.118747 -43.522841 0.928977 33.312262 68.677198 37.901506 -13.394743 2.883655 -8.068799 0.206563 0.885715 0.085223
-215.598247 57.538159 134.369482 177.164738 -29.737386 -1.172346 1.455169 24.082795 3.306575 -0.054519 3.583602 0.458259 -0.090051 5.820311 0.725918 0.029975 19.922949 2.547371 -0.022220 12.109525 -1.421785 0.542256 -13.271691 -2.704082 4.928723 -1.077365 -3.082633 18.942866 -28.438697 -19.113855 38.212843 -62.092649 -5.195262 16.275074 7.746454 -32.021715 -10.132043 -4.753567 -3.899245 -7.887187 -24.862200 2.746826 -68.662739 -50.619487 30.461119 -21.558684 -1.805792 23.687582 2.754025 -46.273341 -1.253580 -13.610291 67.227446 -19.823344 5.710004 24.486473 3.478831 -1.272435 -16.636447 6.927345 -9.120011 -43.525676 0.926610 33.313969 68.682514 37.914977 -13.398835 2.879634 -8.080114 0.219413 0.884729 0.089566
-215.605203 57.530648 134.376928 177.155924 -29.729588 -1.169475 1.467496 24.050918 3.313941 -0.052078 3.579674 0.458617 -0.092782 5.827427 0.724894 0.029613 19.929220 2.548457 -0.042948 12.036265 -1.424314 0.471152 -13.337978 -2.700748 4.934511 -1.112302 -3.083188 18.949979 -28.438080 -19.107029 38.163309 -62.035287 -5.112457 16.305925 7.892136 -31.980237 -10.127684 -4.804781 -3.882360 -7.884614 -24.829979 2.722404 -68.571511 -50.579188 30.326511 -21.542571 -1.812824 23.704179 2.735176 -46.297033 -1.236626 -13.665234 67.199681 -19.906846 5.769394 24.540435 3.495632 -1.281650 -16.661133 6.936495 -9.114370 -43.534535 0.923898 33.315333 68.687213 37.926500 -13.401928 2.877685 -8.087837 0.218289 0.882256 0.091106
-215.610868 57.522622 134.385567 177.148500 -29.708395 -1.171038 1.483382 24.009355 3.327344 -0.053675 3.570995 0.455531 -0.078181 5.780670 0.731935 0.028077 19.953738 2.556516 -0.084098 11.998796 -1.433169 0.398215 -13.401439 -2.693572 4.923533 -1.110323 -3.089533 18.959927 -28.451946 -19.101686 38.097708 -61.963946 -5.003485 16.325513 8.027059 -31.950569 -10.142395 -4.821576 -3.877047 -7.879418 -24.797655 2.697397 -68.483082 -50.540026 30.197768 -21.539468 -1.830152 23.740273 2.724666 -46.328855 -1.221071 -13.814773 67.140857 -20.076937 5.885492 24.623390 3.526784 -1.309058 -16.703105 6.948639 -9.115280 -43.557739 0.925506 33.320368 68.690111 37.945227 -13.397934 2.881094 -8.094850 0.211335 0.879267 0.090974
-215.616007 57.517863 134.388792 177.174969 -29.717666 -1.185476 1.469852 23.973003 3.332472 -0.054944 3.586360 0.456122 -0.074664 5.770908 0.733385 0.054966 19.896445 2.572181 -0.137812 12.028801 -1.437247 0.318254 -13.481696 -2.683306 4.889349 -1.064345 -3.087498 18.965242 -28.454409 -19.095698 38.042662 -61.909219 -4.911048 16.339758 8.156131 -31.915755 -10.176608 -4.791771 -3.875644 -7.903123 -24.854160 2.700922 -68.263687 -50.483204 29.933364 -21.535446 -1.848184 23.774643 2.688267 -46.332124 -1.211546 -13.887460 67.120103 -20.161572 5.927202 24.689924 3.509895 -1.317968 -16.747900 6.980833 -9.137527 -43.551413 0.915301 33.326985 68.694419 37.966258 -13.393223 2.890547 -8.104536 0.211669 0.868140 0.091656
-215.620824 57.513388 134.391912 177.191748 -29.720953 -1.190575 1.463969 23.953178 3.333417 -0.052787 3.580522 0.456846 -0.079812 5.779795 0.733885 0.053565 19.901893 2.574495 -0.148062 12.021097 -1.437968 0.227631 -13.600534 -2.672622 4.893095 -1.097835 -3.094768 18.961015 -28.461395 -19.084105 37.986141 -61.853059 -4.814275 16.351818 8.278091 -31.887199 -10.177576 -4.839476 -3.860474 -7.911271 -24.852381 2.688691 -68.130682 -50.437952 29.768850 -21.488288 -1.837428 23.765417 2.651956 -46.341844 -1.199134 -13.952811 67.104937 -20.246984 5.960400 24.730750 3.501117 -1.320060 -16.771899 6.999925 -9.145177 -43.556765 0.892661 33.355209 68.701043 38.010570 -13.373071 2.914125 -8.103154 0.193923 0.843102 0.083756
-215.624383 57.509776 134.394051 177.211198 -29.723889 -1.197202 1.451526 23.945544 3.332927 -0.048352 3.571438 0.457329 -0.081217 5.780835 0.734862 0.077538 19.871047 2.583621 -0.192407 11.988881 -1.440459 0.144018 -13.656593 -2.660364 4.887486 -1.145432 -3.096151 18.931713 -28.423924 -19.054726 37.926556 -61.799159 -4.720915 16.367122 8.392959 -31.854124 -10.207734 -4.821955 -3.859015 -7.923433 -24.878572 2.687376 -68.007166 -50.390136 29.617066 -21.471935 -1.843669 23.781491 2.610345 -46.350943 -1.181199 -14.023976 67.092648 -20.338420 5.981537 24.762724 3.480134 -1.313258 -16.790868 7.023833 -9.157001 -43.556049 0.882595 33.356745 68.708454 38.021327 -13.368711 2.920914 -8.105936 0.194093 0.833132 0.082282
-215.626729 57.507184 134.394974 177.238593 -29.727545 -1.207706 1.432402 23.939963 3.332349 -0.050913 3.574695 0.457246 -0.067834 5.753288 0.735414 0.111511 19.813966 2.589668 -0.257075 12.000219 -1.434824 0.062294 -13.710933 -2.646403 4.845899 -1.104536 -3.078718 18.924107 -28.419762 -19.045551 37.879054 -61.765323 -4.655648 16.386346 8.503406 -31.809398 -10.255203 -4.804142 -3.841888 -7.918813 -24.851992 2.659847 -67.910862 -50.344451 29.494967 -21.467146 -1.860977 23.807996 2.558430 -46.355070 -1.157954 -14.116158 67.079124 -20.451580 6.001441 24.776985 3.453479 -1.301026 -16.797752 7.049089 -9.175107 -43.554576 0.872176 33.359529 68.714256 38.034160 -13.362963 2.932728 -8.113195 0.190635 0.820115 0.084522
-215.628900 57.505391 134.394962 177.271452 -29.729400 -1.215569 1.407719 23.923467 3.325345 -0.048929 3.569314 0.457267 -0.064905 5.745220 0.735516 0.123361 19.803530 2.592127 -0.313805 11.915296 -1.441689 -0.002442 -13.711462 -2.626565 4.832570 -1.106802 -3.071334 18.908063 -28.393245 -19.028457 37.862141 -61.728795 -4.611739 16.398494 8.588902 -31.790988 -10.276626 -4.831253 -3.821824 -7.907169 -24.799979 2.629926 -67.864733 -50.316317 29.433017 -21.459865 -1.870977 23.821398 2.420882 -46.358143 -1.072832 -14.194390 67.059411 -20.611876 6.017114 24.779933 3.423594 -1.280488 -16.795419 7.074784 -9.187848 -43.556121 0.845750 33.370395 68.714734 38.060624 -13.353026 2.953037 -8.114410 0.180341 0.799312 0.078927
-215.630195 57.504483 134.393848 177.308729 -29.730901 -1.225918 1.392940 23.885972 3.322460 -0.056553 3.582764 0.459438 -0.048800 5.709567 0.732538 0.117763 19.825762 2.598805 -0.360325 11.868218 -1.444359 -0.076447 -13.749160 -2.608382 4.823555 -1.112095 -3.067027 18.901726 -28.408201 -19.019847 37.781749 -61.634638 -4.481168 16.400278 8.597071 -31.820729 -10.294568 -4.844222 -3.807827 -7.906060 -24.802854 2.611936 -67.794303 -50.290019 29.344294 -21.417035 -1.837354 23.786930 2.277579 -46.355345 -0.985701 -14.308658 67.031181 -20.809152 6.050823 24.765650 3.408416 -1.264279 -16.779171 7.090421 -9.205604 -43.556134 0.824990 33.374709 68.715134 38.077003 -13.348252 2.970018 -8.118033 0.174666 0.781489 0.077016
